<?xml version="1.0" encoding="utf-8" standalone="no"?><!DOCTYPE svg PUBLIC "-//W3C//DTD SVG 1.1//EN"
  "http://www.w3.org/Graphics/SVG/1.1/DTD/svg11.dtd"><svg xmlns:xlink="http://www.w3.org/1999/xlink" width="460.8pt" height="302.4pt" viewBox="0 0 460.8 302.4" xmlns="http://www.w3.org/2000/svg" version="1.1"><defs><style type="text/css">*{stroke-linejoin: round; stroke-linecap: butt}</style></defs><g id="figure_1"><g id="patch_1"><path d="M 0 302.4 L 460.8 302.4 L 460.8 0 L 0 0 z" style="fill: #ffffff"/></g><g id="axes_1"><g id="patch_2"><path d="M 37.32 268.78 L 452.76 268.78 L 452.76 17.21 L 37.32 17.21 z" style="fill: #ffffff"/></g><g id="matplotlib.axis_1"><g id="xtick_1"><g id="line2d_1"><path d="M 37.32 268.78 L 37.32 17.21" clip-path="url(#pe987f3780f)" style="fill: none; stroke: #b0b0b0; stroke-opacity: 0.3; stroke-width: 0.8; stroke-linecap: square"/></g><g id="line2d_2"><defs><path id="m0a67c1c8d6" d="M 0 0 L 0 3.5" style="stroke: #000000; stroke-width: 0.8"/></defs><g><use xlink:href="#m0a67c1c8d6" x="37.32" y="268.78" style="stroke: #000000; stroke-width: 0.8"/></g></g><g id="text_1"><g transform="translate(32.275162 284.145541) scale(0.09 -0.09)"><defs><path id="DejaVuSans-15" d="M 1228 531 L 3431 531 L 3431 0 L 469 0 L 469 531 Q 828 903 1448 1529 Q 2069 2156 2228 2338 Q 2531 2678 2651 2914 Q 2772 3150 2772 3378 Q 2772 3750 2511 3984 Q 2250 4219 1831 4219 Q 1534 4219 1204 4116 Q 875 4013 500 3803 L 500 4441 Q 881 4594 1212 4672 Q 1544 4750 1819 4750 Q 2544 4750 2975 4387 Q 3406 4025 3406 3419 Q 3406 3131 3298 2873 Q 3191 2616 2906 2266 Q 2828 2175 2409 1742 Q 1991 1309 1228 531 z" transform="scale(0.015625)"/><path id="DejaVuSans-14" d="M 794 531 L 1825 531 L 1825 4091 L 703 3866 L 703 4441 L 1819 4666 L 2450 4666 L 2450 531 L 3481 531 L 3481 0 L 794 0 L 794 531 z" transform="scale(0.015625)"/></defs><use xlink:href="#DejaVuSans-15" transform="translate(0 0.665625)"/><use xlink:href="#DejaVuSans-14" transform="translate(64.580078 41.965625) scale(0.7)"/></g></g></g><g id="xtick_2"><g id="line2d_3"><path d="M 89.25 268.78 L 89.25 17.21" clip-path="url(#pe987f3780f)" style="fill: none; stroke: #b0b0b0; stroke-opacity: 0.3; stroke-width: 0.8; stroke-linecap: square"/></g><g id="line2d_4"><g><use xlink:href="#m0a67c1c8d6" x="89.25" y="268.78" style="stroke: #000000; stroke-width: 0.8"/></g></g><g id="text_2"><g transform="translate(84.205737 284.235541) scale(0.09 -0.09)"><use xlink:href="#DejaVuSans-15" transform="translate(0 0.746875)"/><use xlink:href="#DejaVuSans-15" transform="translate(64.580078 42.046875) scale(0.7)"/></g></g></g><g id="xtick_3"><g id="line2d_5"><path d="M 141.18 268.78 L 141.18 17.21" clip-path="url(#pe987f3780f)" style="fill: none; stroke: #b0b0b0; stroke-opacity: 0.3; stroke-width: 0.8; stroke-linecap: square"/></g><g id="line2d_6"><g><use xlink:href="#m0a67c1c8d6" x="141.18" y="268.78" style="stroke: #000000; stroke-width: 0.8"/></g></g><g id="text_3"><g transform="translate(136.136311 284.235541) scale(0.09 -0.09)"><defs><path id="DejaVuSans-16" d="M 2597 2516 Q 3050 2419 3304 2112 Q 3559 1806 3559 1356 Q 3559 666 3084 287 Q 2609 -91 1734 -91 Q 1441 -91 1130 -33 Q 819 25 488 141 L 488 750 Q 750 597 1062 519 Q 1375 441 1716 441 Q 2309 441 2620 675 Q 2931 909 2931 1356 Q 2931 1769 2642 2001 Q 2353 2234 1838 2234 L 1294 2234 L 1294 2753 L 1863 2753 Q 2328 2753 2575 2939 Q 2822 3125 2822 3475 Q 2822 3834 2567 4026 Q 2313 4219 1838 4219 Q 1578 4219 1281 4162 Q 984 4106 628 3988 L 628 4550 Q 988 4650 1302 4700 Q 1616 4750 1894 4750 Q 2613 4750 3031 4423 Q 3450 4097 3450 3541 Q 3450 3153 3228 2886 Q 3006 2619 2597 2516 z" transform="scale(0.015625)"/></defs><use xlink:href="#DejaVuSans-15" transform="translate(0 0.746875)"/><use xlink:href="#DejaVuSans-16" transform="translate(64.580078 42.046875) scale(0.7)"/></g></g></g><g id="xtick_4"><g id="line2d_7"><path d="M 193.11 268.78 L 193.11 17.21" clip-path="url(#pe987f3780f)" style="fill: none; stroke: #b0b0b0; stroke-opacity: 0.3; stroke-width: 0.8; stroke-linecap: square"/></g><g id="line2d_8"><g><use xlink:href="#m0a67c1c8d6" x="193.11" y="268.78" style="stroke: #000000; stroke-width: 0.8"/></g></g><g id="text_4"><g transform="translate(188.066886 284.145541) scale(0.09 -0.09)"><defs><path id="DejaVuSans-17" d="M 2419 4116 L 825 1625 L 2419 1625 L 2419 4116 z M 2253 4666 L 3047 4666 L 3047 1625 L 3713 1625 L 3713 1100 L 3047 1100 L 3047 0 L 2419 0 L 2419 1100 L 313 1100 L 313 1709 L 2253 4666 z" transform="scale(0.015625)"/></defs><use xlink:href="#DejaVuSans-15" transform="translate(0 0.665625)"/><use xlink:href="#DejaVuSans-17" transform="translate(64.580078 41.965625) scale(0.7)"/></g></g></g><g id="xtick_5"><g id="line2d_9"><path d="M 245.04 268.78 L 245.04 17.21" clip-path="url(#pe987f3780f)" style="fill: none; stroke: #b0b0b0; stroke-opacity: 0.3; stroke-width: 0.8; stroke-linecap: square"/></g><g id="line2d_10"><g><use xlink:href="#m0a67c1c8d6" x="245.04" y="268.78" style="stroke: #000000; stroke-width: 0.8"/></g></g><g id="text_5"><g transform="translate(239.997461 284.145541) scale(0.09 -0.09)"><defs><path id="DejaVuSans-18" d="M 691 4666 L 3169 4666 L 3169 4134 L 1269 4134 L 1269 2991 Q 1406 3038 1543 3061 Q 1681 3084 1819 3084 Q 2600 3084 3056 2656 Q 3513 2228 3513 1497 Q 3513 744 3044 326 Q 2575 -91 1722 -91 Q 1428 -91 1123 -41 Q 819 9 494 109 L 494 744 Q 775 591 1075 516 Q 1375 441 1709 441 Q 2250 441 2565 725 Q 2881 1009 2881 1497 Q 2881 1984 2565 2268 Q 2250 2553 1709 2553 Q 1456 2553 1204 2497 Q 953 2441 691 2322 L 691 4666 z" transform="scale(0.015625)"/></defs><use xlink:href="#DejaVuSans-15" transform="translate(0 0.665625)"/><use xlink:href="#DejaVuSans-18" transform="translate(64.580078 41.965625) scale(0.7)"/></g></g></g><g id="xtick_6"><g id="line2d_11"><path d="M 296.97 268.78 L 296.97 17.21" clip-path="url(#pe987f3780f)" style="fill: none; stroke: #b0b0b0; stroke-opacity: 0.3; stroke-width: 0.8; stroke-linecap: square"/></g><g id="line2d_12"><g><use xlink:href="#m0a67c1c8d6" x="296.97" y="268.78" style="stroke: #000000; stroke-width: 0.8"/></g></g><g id="text_6"><g transform="translate(291.928036 284.235541) scale(0.09 -0.09)"><defs><path id="DejaVuSans-19" d="M 2113 2584 Q 1688 2584 1439 2293 Q 1191 2003 1191 1497 Q 1191 994 1439 701 Q 1688 409 2113 409 Q 2538 409 2786 701 Q 3034 994 3034 1497 Q 3034 2003 2786 2293 Q 2538 2584 2113 2584 z M 3366 4563 L 3366 3988 Q 3128 4100 2886 4159 Q 2644 4219 2406 4219 Q 1781 4219 1451 3797 Q 1122 3375 1075 2522 Q 1259 2794 1537 2939 Q 1816 3084 2150 3084 Q 2853 3084 3261 2657 Q 3669 2231 3669 1497 Q 3669 778 3244 343 Q 2819 -91 2113 -91 Q 1303 -91 875 529 Q 447 1150 447 2328 Q 447 3434 972 4092 Q 1497 4750 2381 4750 Q 2619 4750 2861 4703 Q 3103 4656 3366 4563 z" transform="scale(0.015625)"/></defs><use xlink:href="#DejaVuSans-15" transform="translate(0 0.746875)"/><use xlink:href="#DejaVuSans-19" transform="translate(64.580078 42.046875) scale(0.7)"/></g></g></g><g id="xtick_7"><g id="line2d_13"><path d="M 348.9 268.78 L 348.9 17.21" clip-path="url(#pe987f3780f)" style="fill: none; stroke: #b0b0b0; stroke-opacity: 0.3; stroke-width: 0.8; stroke-linecap: square"/></g><g id="line2d_14"><g><use xlink:href="#m0a67c1c8d6" x="348.9" y="268.78" style="stroke: #000000; stroke-width: 0.8"/></g></g><g id="text_7"><g transform="translate(343.85861 284.145541) scale(0.09 -0.09)"><defs><path id="DejaVuSans-1a" d="M 525 4666 L 3525 4666 L 3525 4397 L 1831 0 L 1172 0 L 2766 4134 L 525 4134 L 525 4666 z" transform="scale(0.015625)"/></defs><use xlink:href="#DejaVuSans-15" transform="translate(0 0.665625)"/><use xlink:href="#DejaVuSans-1a" transform="translate(64.580078 41.965625) scale(0.7)"/></g></g></g><g id="xtick_8"><g id="line2d_15"><path d="M 400.83 268.78 L 400.83 17.21" clip-path="url(#pe987f3780f)" style="fill: none; stroke: #b0b0b0; stroke-opacity: 0.3; stroke-width: 0.8; stroke-linecap: square"/></g><g id="line2d_16"><g><use xlink:href="#m0a67c1c8d6" x="400.83" y="268.78" style="stroke: #000000; stroke-width: 0.8"/></g></g><g id="text_8"><g transform="translate(395.789185 284.235541) scale(0.09 -0.09)"><defs><path id="DejaVuSans-1b" d="M 2034 2216 Q 1584 2216 1326 1975 Q 1069 1734 1069 1313 Q 1069 891 1326 650 Q 1584 409 2034 409 Q 2484 409 2743 651 Q 3003 894 3003 1313 Q 3003 1734 2745 1975 Q 2488 2216 2034 2216 z M 1403 2484 Q 997 2584 770 2862 Q 544 3141 544 3541 Q 544 4100 942 4425 Q 1341 4750 2034 4750 Q 2731 4750 3128 4425 Q 3525 4100 3525 3541 Q 3525 3141 3298 2862 Q 3072 2584 2669 2484 Q 3125 2378 3379 2068 Q 3634 1759 3634 1313 Q 3634 634 3220 271 Q 2806 -91 2034 -91 Q 1263 -91 848 271 Q 434 634 434 1313 Q 434 1759 690 2068 Q 947 2378 1403 2484 z M 1172 3481 Q 1172 3119 1398 2916 Q 1625 2713 2034 2713 Q 2441 2713 2670 2916 Q 2900 3119 2900 3481 Q 2900 3844 2670 4047 Q 2441 4250 2034 4250 Q 1625 4250 1398 4047 Q 1172 3844 1172 3481 z" transform="scale(0.015625)"/></defs><use xlink:href="#DejaVuSans-15" transform="translate(0 0.746875)"/><use xlink:href="#DejaVuSans-1b" transform="translate(64.580078 42.046875) scale(0.7)"/></g></g></g><g id="xtick_9"><g id="line2d_17"><path d="M 452.76 268.78 L 452.76 17.21" clip-path="url(#pe987f3780f)" style="fill: none; stroke: #b0b0b0; stroke-opacity: 0.3; stroke-width: 0.8; stroke-linecap: square"/></g><g id="line2d_18"><g><use xlink:href="#m0a67c1c8d6" x="452.76" y="268.78" style="stroke: #000000; stroke-width: 0.8"/></g></g><g id="text_9"><g transform="translate(447.71976 284.235541) scale(0.09 -0.09)"><defs><path id="DejaVuSans-1c" d="M 703 97 L 703 672 Q 941 559 1184 500 Q 1428 441 1663 441 Q 2288 441 2617 861 Q 2947 1281 2994 2138 Q 2813 1869 2534 1725 Q 2256 1581 1919 1581 Q 1219 1581 811 2004 Q 403 2428 403 3163 Q 403 3881 828 4315 Q 1253 4750 1959 4750 Q 2769 4750 3195 4129 Q 3622 3509 3622 2328 Q 3622 1225 3098 567 Q 2575 -91 1691 -91 Q 1453 -91 1209 -44 Q 966 3 703 97 z M 1959 2075 Q 2384 2075 2632 2365 Q 2881 2656 2881 3163 Q 2881 3666 2632 3958 Q 2384 4250 1959 4250 Q 1534 4250 1286 3958 Q 1038 3666 1038 3163 Q 1038 2656 1286 2365 Q 1534 2075 1959 2075 z" transform="scale(0.015625)"/></defs><use xlink:href="#DejaVuSans-15" transform="translate(0 0.746875)"/><use xlink:href="#DejaVuSans-1c" transform="translate(64.580078 42.046875) scale(0.7)"/></g></g></g><g id="text_10"><g transform="translate(166.242461 297.237651) scale(0.09 -0.09)"><defs><path id="DejaVuSans-56" d="M 2834 3397 L 2834 2853 Q 2591 2978 2328 3040 Q 2066 3103 1784 3103 Q 1356 3103 1142 2972 Q 928 2841 928 2578 Q 928 2378 1081 2264 Q 1234 2150 1697 2047 L 1894 2003 Q 2506 1872 2764 1633 Q 3022 1394 3022 966 Q 3022 478 2636 193 Q 2250 -91 1575 -91 Q 1294 -91 989 -36 Q 684 19 347 128 L 347 722 Q 666 556 975 473 Q 1284 391 1588 391 Q 1994 391 2212 530 Q 2431 669 2431 922 Q 2431 1156 2273 1281 Q 2116 1406 1581 1522 L 1381 1569 Q 847 1681 609 1914 Q 372 2147 372 2553 Q 372 3047 722 3315 Q 1072 3584 1716 3584 Q 2034 3584 2315 3537 Q 2597 3491 2834 3397 z" transform="scale(0.015625)"/><path id="DejaVuSans-4c" d="M 603 3500 L 1178 3500 L 1178 0 L 603 0 L 603 3500 z M 603 4863 L 1178 4863 L 1178 4134 L 603 4134 L 603 4863 z" transform="scale(0.015625)"/><path id="DejaVuSans-50" d="M 3328 2828 Q 3544 3216 3844 3400 Q 4144 3584 4550 3584 Q 5097 3584 5394 3201 Q 5691 2819 5691 2113 L 5691 0 L 5113 0 L 5113 2094 Q 5113 2597 4934 2840 Q 4756 3084 4391 3084 Q 3944 3084 3684 2787 Q 3425 2491 3425 1978 L 3425 0 L 2847 0 L 2847 2094 Q 2847 2600 2669 2842 Q 2491 3084 2119 3084 Q 1678 3084 1418 2786 Q 1159 2488 1159 1978 L 1159 0 L 581 0 L 581 3500 L 1159 3500 L 1159 2956 Q 1356 3278 1631 3431 Q 1906 3584 2284 3584 Q 2666 3584 2933 3390 Q 3200 3197 3328 2828 z" transform="scale(0.015625)"/><path id="DejaVuSans-53" d="M 1159 525 L 1159 -1331 L 581 -1331 L 581 3500 L 1159 3500 L 1159 2969 Q 1341 3281 1617 3432 Q 1894 3584 2278 3584 Q 2916 3584 3314 3078 Q 3713 2572 3713 1747 Q 3713 922 3314 415 Q 2916 -91 2278 -91 Q 1894 -91 1617 61 Q 1341 213 1159 525 z M 3116 1747 Q 3116 2381 2855 2742 Q 2594 3103 2138 3103 Q 1681 3103 1420 2742 Q 1159 2381 1159 1747 Q 1159 1113 1420 752 Q 1681 391 2138 391 Q 2594 391 2855 752 Q 3116 1113 3116 1747 z" transform="scale(0.015625)"/><path id="DejaVuSans-4f" d="M 603 4863 L 1178 4863 L 1178 0 L 603 0 L 603 4863 z" transform="scale(0.015625)"/><path id="DejaVuSans-48" d="M 3597 1894 L 3597 1613 L 953 1613 Q 991 1019 1311 708 Q 1631 397 2203 397 Q 2534 397 2845 478 Q 3156 559 3463 722 L 3463 178 Q 3153 47 2828 -22 Q 2503 -91 2169 -91 Q 1331 -91 842 396 Q 353 884 353 1716 Q 353 2575 817 3079 Q 1281 3584 2069 3584 Q 2775 3584 3186 3129 Q 3597 2675 3597 1894 z M 3022 2063 Q 3016 2534 2758 2815 Q 2500 3097 2075 3097 Q 1594 3097 1305 2825 Q 1016 2553 972 2059 L 3022 2063 z" transform="scale(0.015625)"/><path id="DejaVuSans-5b" d="M 3513 3500 L 2247 1797 L 3578 0 L 2900 0 L 1881 1375 L 863 0 L 184 0 L 1544 1831 L 300 3500 L 978 3500 L 1906 2253 L 2834 3500 L 3513 3500 z" transform="scale(0.015625)"/><path id="DejaVuSans-3" transform="scale(0.015625)"/><path id="DejaVuSans-4a" d="M 2906 1791 Q 2906 2416 2648 2759 Q 2391 3103 1925 3103 Q 1463 3103 1205 2759 Q 947 2416 947 1791 Q 947 1169 1205 825 Q 1463 481 1925 481 Q 2391 481 2648 825 Q 2906 1169 2906 1791 z M 3481 434 Q 3481 -459 3084 -895 Q 2688 -1331 1869 -1331 Q 1566 -1331 1297 -1286 Q 1028 -1241 775 -1147 L 775 -588 Q 1028 -725 1275 -790 Q 1522 -856 1778 -856 Q 2344 -856 2625 -561 Q 2906 -266 2906 331 L 2906 616 Q 2728 306 2450 153 Q 2172 0 1784 0 Q 1141 0 747 490 Q 353 981 353 1791 Q 353 2603 747 3093 Q 1141 3584 1784 3584 Q 2172 3584 2450 3431 Q 2728 3278 2906 2969 L 2906 3500 L 3481 3500 L 3481 434 z" transform="scale(0.015625)"/><path id="DejaVuSans-55" d="M 2631 2963 Q 2534 3019 2420 3045 Q 2306 3072 2169 3072 Q 1681 3072 1420 2755 Q 1159 2438 1159 1844 L 1159 0 L 581 0 L 581 3500 L 1159 3500 L 1159 2956 Q 1341 3275 1631 3429 Q 1922 3584 2338 3584 Q 2397 3584 2469 3576 Q 2541 3569 2628 3553 L 2631 2963 z" transform="scale(0.015625)"/><path id="DejaVuSans-44" d="M 2194 1759 Q 1497 1759 1228 1600 Q 959 1441 959 1056 Q 959 750 1161 570 Q 1363 391 1709 391 Q 2188 391 2477 730 Q 2766 1069 2766 1631 L 2766 1759 L 2194 1759 z M 3341 1997 L 3341 0 L 2766 0 L 2766 531 Q 2569 213 2275 61 Q 1981 -91 1556 -91 Q 1019 -91 701 211 Q 384 513 384 1019 Q 384 1609 779 1909 Q 1175 2209 1959 2209 L 2766 2209 L 2766 2266 Q 2766 2663 2505 2880 Q 2244 3097 1772 3097 Q 1472 3097 1187 3025 Q 903 2953 641 2809 L 641 3341 Q 956 3463 1253 3523 Q 1550 3584 1831 3584 Q 2591 3584 2966 3190 Q 3341 2797 3341 1997 z" transform="scale(0.015625)"/><path id="DejaVuSans-47" d="M 2906 2969 L 2906 4863 L 3481 4863 L 3481 0 L 2906 0 L 2906 525 Q 2725 213 2448 61 Q 2172 -91 1784 -91 Q 1150 -91 751 415 Q 353 922 353 1747 Q 353 2572 751 3078 Q 1150 3584 1784 3584 Q 2172 3584 2448 3432 Q 2725 3281 2906 2969 z M 947 1747 Q 947 1113 1208 752 Q 1469 391 1925 391 Q 2381 391 2643 752 Q 2906 1113 2906 1747 Q 2906 2381 2643 2742 Q 2381 3103 1925 3103 Q 1469 3103 1208 2742 Q 947 2381 947 1747 z" transform="scale(0.015625)"/><path id="DejaVuSans-51" d="M 3513 2113 L 3513 0 L 2938 0 L 2938 2094 Q 2938 2591 2744 2837 Q 2550 3084 2163 3084 Q 1697 3084 1428 2787 Q 1159 2491 1159 1978 L 1159 0 L 581 0 L 581 3500 L 1159 3500 L 1159 2956 Q 1366 3272 1645 3428 Q 1925 3584 2291 3584 Q 2894 3584 3203 3211 Q 3513 2838 3513 2113 z" transform="scale(0.015625)"/><path id="DejaVuSans-57" d="M 1172 4494 L 1172 3500 L 2356 3500 L 2356 3053 L 1172 3053 L 1172 1153 Q 1172 725 1289 603 Q 1406 481 1766 481 L 2356 481 L 2356 0 L 1766 0 Q 1100 0 847 248 Q 594 497 594 1153 L 594 3053 L 172 3053 L 172 3500 L 594 3500 L 594 4494 L 1172 4494 z" transform="scale(0.015625)"/><path id="DejaVuSans-Oblique-34e" d="M 938 3500 L 1531 3500 L 1247 2047 L 3041 3500 L 3741 3500 L 2106 2181 L 3275 0 L 2572 0 L 1628 1806 L 1122 1403 L 850 0 L 256 0 L 938 3500 z" transform="scale(0.015625)"/><path id="DejaVuSans-b" d="M 1984 4856 Q 1566 4138 1362 3434 Q 1159 2731 1159 2009 Q 1159 1288 1364 580 Q 1569 -128 1984 -844 L 1484 -844 Q 1016 -109 783 600 Q 550 1309 550 2009 Q 550 2706 781 3412 Q 1013 4119 1484 4856 L 1984 4856 z" transform="scale(0.015625)"/><path id="DejaVuSans-46" d="M 3122 3366 L 3122 2828 Q 2878 2963 2633 3030 Q 2388 3097 2138 3097 Q 1578 3097 1268 2742 Q 959 2388 959 1747 Q 959 1106 1268 751 Q 1578 397 2138 397 Q 2388 397 2633 464 Q 2878 531 3122 666 L 3122 134 Q 2881 22 2623 -34 Q 2366 -91 2075 -91 Q 1284 -91 818 406 Q 353 903 353 1747 Q 353 2603 823 3093 Q 1294 3584 2113 3584 Q 2378 3584 2631 3529 Q 2884 3475 3122 3366 z" transform="scale(0.015625)"/><path id="DejaVuSans-52" d="M 1959 3097 Q 1497 3097 1228 2736 Q 959 2375 959 1747 Q 959 1119 1226 758 Q 1494 397 1959 397 Q 2419 397 2687 759 Q 2956 1122 2956 1747 Q 2956 2369 2687 2733 Q 2419 3097 1959 3097 z M 1959 3584 Q 2709 3584 3137 3096 Q 3566 2609 3566 1747 Q 3566 888 3137 398 Q 2709 -91 1959 -91 Q 1206 -91 779 398 Q 353 888 353 1747 Q 353 2609 779 3096 Q 1206 3584 1959 3584 z" transform="scale(0.015625)"/><path id="DejaVuSans-12" d="M 1625 4666 L 2156 4666 L 531 -594 L 0 -594 L 1625 4666 z" transform="scale(0.015625)"/><path id="DejaVuSans-e" d="M 2944 4013 L 2944 2272 L 4684 2272 L 4684 1741 L 2944 1741 L 2944 0 L 2419 0 L 2419 1741 L 678 1741 L 678 2272 L 2419 2272 L 2419 4013 L 2944 4013 z" transform="scale(0.015625)"/><path id="DejaVuSans-c" d="M 513 4856 L 1013 4856 Q 1481 4119 1714 3412 Q 1947 2706 1947 2009 Q 1947 1309 1714 600 Q 1481 -109 1013 -844 L 513 -844 Q 928 -128 1133 580 Q 1338 1288 1338 2009 Q 1338 2731 1133 3434 Q 928 4138 513 4856 z" transform="scale(0.015625)"/></defs><use xlink:href="#DejaVuSans-56" transform="translate(0 0.015625)"/><use xlink:href="#DejaVuSans-4c" transform="translate(52.099609 0.015625)"/><use xlink:href="#DejaVuSans-50" transform="translate(79.882812 0.015625)"/><use xlink:href="#DejaVuSans-53" transform="translate(177.294922 0.015625)"/><use xlink:href="#DejaVuSans-4f" transform="translate(240.771484 0.015625)"/><use xlink:href="#DejaVuSans-48" transform="translate(268.554688 0.015625)"/><use xlink:href="#DejaVuSans-5b" transform="translate(328.078125 0.015625)"/><use xlink:href="#DejaVuSans-3" transform="translate(387.257812 0.015625)"/><use xlink:href="#DejaVuSans-4a" transform="translate(419.044922 0.015625)"/><use xlink:href="#DejaVuSans-55" transform="translate(482.521484 0.015625)"/><use xlink:href="#DejaVuSans-44" transform="translate(523.634766 0.015625)"/><use xlink:href="#DejaVuSans-47" transform="translate(584.914062 0.015625)"/><use xlink:href="#DejaVuSans-4c" transform="translate(648.390625 0.015625)"/><use xlink:href="#DejaVuSans-48" transform="translate(676.173828 0.015625)"/><use xlink:href="#DejaVuSans-51" transform="translate(737.697266 0.015625)"/><use xlink:href="#DejaVuSans-57" transform="translate(801.076172 0.015625)"/><use xlink:href="#DejaVuSans-56" transform="translate(840.285156 0.015625)"/><use xlink:href="#DejaVuSans-3" transform="translate(892.384766 0.015625)"/><use xlink:href="#DejaVuSans-Oblique-34e" transform="translate(924.171875 0.015625)"/><use xlink:href="#DejaVuSans-3" transform="translate(983.107422 0.015625)"/><use xlink:href="#DejaVuSans-b" transform="translate(1014.894531 0.015625)"/><use xlink:href="#DejaVuSans-46" transform="translate(1053.908203 0.015625)"/><use xlink:href="#DejaVuSans-52" transform="translate(1108.888672 0.015625)"/><use xlink:href="#DejaVuSans-56" transform="translate(1170.070312 0.015625)"/><use xlink:href="#DejaVuSans-57" transform="translate(1222.169922 0.015625)"/><use xlink:href="#DejaVuSans-3" transform="translate(1261.378906 0.015625)"/><use xlink:href="#DejaVuSans-12" transform="translate(1293.166016 0.015625)"/><use xlink:href="#DejaVuSans-3" transform="translate(1326.857422 0.015625)"/><use xlink:href="#DejaVuSans-b" transform="translate(1358.644531 0.015625)"/><use xlink:href="#DejaVuSans-51" transform="translate(1397.658203 0.015625)"/><use xlink:href="#DejaVuSans-3" transform="translate(1461.037109 0.015625)"/><use xlink:href="#DejaVuSans-e" transform="translate(1492.824219 0.015625)"/><use xlink:href="#DejaVuSans-3" transform="translate(1576.613281 0.015625)"/><use xlink:href="#DejaVuSans-14" transform="translate(1608.400391 0.015625)"/><use xlink:href="#DejaVuSans-c" transform="translate(1672.023438 0.015625)"/><use xlink:href="#DejaVuSans-c" transform="translate(1711.037109 0.015625)"/></g></g></g><g id="matplotlib.axis_2"><g id="ytick_1"><g id="line2d_19"><path d="M 37.32 263.94 L 452.76 263.94" clip-path="url(#pe987f3780f)" style="fill: none; stroke: #b0b0b0; stroke-opacity: 0.3; stroke-width: 0.8; stroke-linecap: square"/></g><g id="line2d_20"><defs><path id="mc3aa83eee0" d="M 0 0 L -3.5 0" style="stroke: #000000; stroke-width: 0.8"/></defs><g><use xlink:href="#mc3aa83eee0" x="37.32" y="263.94" style="stroke: #000000; stroke-width: 0.8"/></g></g><g id="text_11"><g transform="translate(16.002349 267.356621) scale(0.09 -0.09)"><defs><path id="DejaVuSans-13" d="M 2034 4250 Q 1547 4250 1301 3770 Q 1056 3291 1056 2328 Q 1056 1369 1301 889 Q 1547 409 2034 409 Q 2525 409 2770 889 Q 3016 1369 3016 2328 Q 3016 3291 2770 3770 Q 2525 4250 2034 4250 z M 2034 4750 Q 2819 4750 3233 4129 Q 3647 3509 3647 2328 Q 3647 1150 3233 529 Q 2819 -91 2034 -91 Q 1250 -91 836 529 Q 422 1150 422 2328 Q 422 3509 836 4129 Q 1250 4750 2034 4750 z" transform="scale(0.015625)"/><path id="DejaVuSans-11" d="M 684 794 L 1344 794 L 1344 0 L 684 0 L 684 794 z" transform="scale(0.015625)"/></defs><use xlink:href="#DejaVuSans-13"/><use xlink:href="#DejaVuSans-11" transform="translate(63.625 0)"/><use xlink:href="#DejaVuSans-13" transform="translate(95.40625 0)"/></g></g></g><g id="ytick_2"><g id="line2d_21"><path d="M 37.32 215.56 L 452.76 215.56" clip-path="url(#pe987f3780f)" style="fill: none; stroke: #b0b0b0; stroke-opacity: 0.3; stroke-width: 0.8; stroke-linecap: square"/></g><g id="line2d_22"><g><use xlink:href="#mc3aa83eee0" x="37.32" y="215.56" style="stroke: #000000; stroke-width: 0.8"/></g></g><g id="text_12"><g transform="translate(16.002349 218.97797) scale(0.09 -0.09)"><use xlink:href="#DejaVuSans-13"/><use xlink:href="#DejaVuSans-11" transform="translate(63.625 0)"/><use xlink:href="#DejaVuSans-15" transform="translate(95.40625 0)"/></g></g></g><g id="ytick_3"><g id="line2d_23"><path d="M 37.32 167.18 L 452.76 167.18" clip-path="url(#pe987f3780f)" style="fill: none; stroke: #b0b0b0; stroke-opacity: 0.3; stroke-width: 0.8; stroke-linecap: square"/></g><g id="line2d_24"><g><use xlink:href="#mc3aa83eee0" x="37.32" y="167.18" style="stroke: #000000; stroke-width: 0.8"/></g></g><g id="text_13"><g transform="translate(16.002349 170.599318) scale(0.09 -0.09)"><use xlink:href="#DejaVuSans-13"/><use xlink:href="#DejaVuSans-11" transform="translate(63.625 0)"/><use xlink:href="#DejaVuSans-17" transform="translate(95.40625 0)"/></g></g></g><g id="ytick_4"><g id="line2d_25"><path d="M 37.32 118.8 L 452.76 118.8" clip-path="url(#pe987f3780f)" style="fill: none; stroke: #b0b0b0; stroke-opacity: 0.3; stroke-width: 0.8; stroke-linecap: square"/></g><g id="line2d_26"><g><use xlink:href="#mc3aa83eee0" x="37.32" y="118.8" style="stroke: #000000; stroke-width: 0.8"/></g></g><g id="text_14"><g transform="translate(16.002349 122.220666) scale(0.09 -0.09)"><use xlink:href="#DejaVuSans-13"/><use xlink:href="#DejaVuSans-11" transform="translate(63.625 0)"/><use xlink:href="#DejaVuSans-19" transform="translate(95.40625 0)"/></g></g></g><g id="ytick_5"><g id="line2d_27"><path d="M 37.32 70.42 L 452.76 70.42" clip-path="url(#pe987f3780f)" style="fill: none; stroke: #b0b0b0; stroke-opacity: 0.3; stroke-width: 0.8; stroke-linecap: square"/></g><g id="line2d_28"><g><use xlink:href="#mc3aa83eee0" x="37.32" y="70.42" style="stroke: #000000; stroke-width: 0.8"/></g></g><g id="text_15"><g transform="translate(16.002349 73.842015) scale(0.09 -0.09)"><use xlink:href="#DejaVuSans-13"/><use xlink:href="#DejaVuSans-11" transform="translate(63.625 0)"/><use xlink:href="#DejaVuSans-1b" transform="translate(95.40625 0)"/></g></g></g><g id="ytick_6"><g id="line2d_29"><path d="M 37.32 22.04 L 452.76 22.04" clip-path="url(#pe987f3780f)" style="fill: none; stroke: #b0b0b0; stroke-opacity: 0.3; stroke-width: 0.8; stroke-linecap: square"/></g><g id="line2d_30"><g><use xlink:href="#mc3aa83eee0" x="37.32" y="22.04" style="stroke: #000000; stroke-width: 0.8"/></g></g><g id="text_16"><g transform="translate(16.002349 25.463363) scale(0.09 -0.09)"><use xlink:href="#DejaVuSans-14"/><use xlink:href="#DejaVuSans-11" transform="translate(63.625 0)"/><use xlink:href="#DejaVuSans-13" transform="translate(95.40625 0)"/></g></g></g><g id="text_17"><g transform="translate(9.84024 153.791047) rotate(-90) scale(0.09 -0.09)"><defs><path id="DejaVuSans-Oblique-47" d="M 2675 525 Q 2444 222 2128 65 Q 1813 -91 1428 -91 Q 903 -91 598 267 Q 294 625 294 1247 Q 294 1766 478 2236 Q 663 2706 1013 3078 Q 1244 3325 1534 3454 Q 1825 3584 2144 3584 Q 2481 3584 2739 3421 Q 2997 3259 3138 2956 L 3513 4863 L 4091 4863 L 3144 0 L 2566 0 L 2675 525 z M 891 1350 Q 891 897 1095 644 Q 1300 391 1663 391 Q 1931 391 2161 520 Q 2391 650 2566 903 Q 2750 1166 2856 1509 Q 2963 1853 2963 2188 Q 2963 2622 2758 2865 Q 2553 3109 2194 3109 Q 1922 3109 1687 2981 Q 1453 2853 1288 2613 Q 1106 2353 998 2009 Q 891 1666 891 1350 z" transform="scale(0.015625)"/><path id="DejaVuSans-Oblique-56" d="M 3200 3397 L 3091 2853 Q 2863 2978 2609 3040 Q 2356 3103 2088 3103 Q 1634 3103 1373 2948 Q 1113 2794 1113 2528 Q 1113 2219 1719 2053 Q 1766 2041 1788 2034 L 1972 1978 Q 2547 1819 2739 1644 Q 2931 1469 2931 1166 Q 2931 609 2489 259 Q 2047 -91 1331 -91 Q 1053 -91 747 -37 Q 441 16 72 128 L 184 722 Q 500 559 806 475 Q 1113 391 1394 391 Q 1816 391 2080 572 Q 2344 753 2344 1031 Q 2344 1331 1650 1516 L 1591 1531 L 1394 1581 Q 956 1697 753 1886 Q 550 2075 550 2369 Q 550 2928 970 3256 Q 1391 3584 2113 3584 Q 2397 3584 2667 3537 Q 2938 3491 3200 3397 z" transform="scale(0.015625)"/></defs><use xlink:href="#DejaVuSans-Oblique-47" transform="translate(0 0.015625)"/><use xlink:href="#DejaVuSans-Oblique-56" transform="translate(63.476562 -14.984326) scale(0.7)"/><use xlink:href="#DejaVuSans-b" transform="translate(102.680664 0.015625)"/><use xlink:href="#DejaVuSans-Oblique-34e" transform="translate(141.694336 0.015625)"/><use xlink:href="#DejaVuSans-c" transform="translate(200.629883 0.015625)"/></g></g></g><g id="line2d_31"><path d="M 37.32 263.94 L 200.13 263.94 L 200.13 251.84 L 209.65 251.84 L 209.65 239.75 L 214.16 239.75 L 214.16 227.65 L 215.33 227.65 L 215.33 215.56 L 217.13 215.56 L 217.13 203.46 L 217.93 203.46 L 217.93 191.37 L 218.41 191.37 L 218.41 179.28 L 218.73 179.28 L 218.73 167.18 L 220.3 167.18 L 220.3 155.09 L 222.29 155.09 L 222.29 142.99 L 333.99 142.99 L 333.99 130.9 L 369.31 130.9 L 369.31 118.8 L 452.76 118.8 L 452.76 118.8" clip-path="url(#pe987f3780f)" style="fill: none; stroke: #0072b2; stroke-width: 1.8; stroke-linecap: square"/></g><g id="line2d_32"><path d="M 37.32 263.94 L 150 263.94 L 150 251.84 L 151.18 251.84 L 151.18 239.75 L 154.98 239.75 L 154.98 227.65 L 158.6 227.65 L 158.6 215.56 L 158.96 215.56 L 158.96 203.46 L 160.35 203.46 L 160.35 191.37 L 176.17 191.37 L 176.17 179.28 L 177.55 179.28 L 177.55 167.18 L 181.56 167.18 L 181.56 155.09 L 186.83 155.09 L 186.83 142.99 L 257.37 142.99 L 257.37 130.9 L 287.69 130.9 L 287.69 118.8 L 294.59 118.8 L 294.59 106.71 L 304.55 106.71 L 304.55 94.61 L 310.11 94.61 L 310.11 82.52 L 328.05 82.52 L 328.05 70.42 L 452.76 70.42 L 452.76 70.42" clip-path="url(#pe987f3780f)" style="fill: none; stroke: #d55e00; stroke-width: 1.8; stroke-linecap: square"/></g><g id="line2d_33"><path d="M 37.32 263.94 L 110.8 263.94 L 110.8 251.84 L 112.12 251.84 L 112.12 239.75 L 122.54 239.75 L 122.54 227.65 L 123.11 227.65 L 123.11 203.46 L 125.89 203.46 L 125.89 191.37 L 129.11 191.37 L 129.11 179.28 L 130.66 179.28 L 130.66 167.18 L 136.1 167.18 L 136.1 155.09 L 136.58 155.09 L 136.58 142.99 L 271.03 142.99 L 271.03 130.9 L 279.82 130.9 L 279.82 118.8 L 310.82 118.8 L 310.82 106.71 L 345.36 106.71 L 345.36 94.61 L 346.19 94.61 L 346.19 82.52 L 368.33 82.52 L 368.33 70.42 L 368.37 70.42 L 452.76 70.42 L 452.76 70.42" clip-path="url(#pe987f3780f)" style="fill: none; stroke: #009e73; stroke-width: 1.8; stroke-linecap: square"/></g><g id="line2d_34"><path d="M 37.32 263.94 L 58.87 263.94 L 58.87 227.65 L 62.78 227.65 L 62.78 203.46 L 67.69 203.46 L 67.69 191.37 L 68.87 191.37 L 68.87 179.28 L 71.18 179.28 L 71.18 155.09 L 72.3 155.09 L 72.3 142.99 L 185.5 142.99 L 185.5 130.9 L 452.76 130.9 L 452.76 130.9" clip-path="url(#pe987f3780f)" style="fill: none; stroke: #cc79a7; stroke-width: 1.8; stroke-linecap: square"/></g><g id="line2d_35"><path d="M 37.32 263.94 L 97.67 263.94 L 97.67 251.84 L 101.56 251.84 L 101.56 239.75 L 103.05 239.75 L 103.05 227.65 L 105.25 227.65 L 105.25 215.56 L 108.07 215.56 L 108.07 203.46 L 109.45 203.46 L 109.45 179.28 L 110.13 179.28 L 110.13 167.18 L 116.59 167.18 L 116.59 155.09 L 119.62 155.09 L 119.62 142.99 L 177.02 142.99 L 177.02 130.9 L 177.55 130.9 L 177.55 118.8 L 178.07 118.8 L 178.07 106.71 L 183.1 106.71 L 183.1 94.61 L 190.51 94.61 L 190.51 82.52 L 191.38 82.52 L 191.38 70.42 L 193.53 70.42 L 193.53 46.23 L 194.79 46.23 L 194.79 34.14 L 198.84 34.14 L 198.84 22.04 L 452.76 22.04 L 452.76 22.04" clip-path="url(#pe987f3780f)" style="fill: none; stroke: #e69f00; stroke-width: 1.8; stroke-linecap: square"/></g><g id="line2d_36"><path d="M 37.32 263.94 L 87.44 263.94 L 87.44 251.84 L 90.13 251.84 L 90.13 239.75 L 91.87 239.75 L 91.87 215.56 L 94.41 215.56 L 94.41 179.28 L 95.24 179.28 L 95.24 167.18 L 96.06 167.18 L 96.06 155.09 L 98.47 155.09 L 98.47 142.99 L 142.02 142.99 L 142.02 130.9 L 145.32 130.9 L 145.32 118.8 L 150.75 118.8 L 150.75 94.61 L 152.24 94.61 L 152.24 82.52 L 155.82 82.52 L 155.82 70.42 L 159.91 70.42 L 159.91 46.23 L 161.22 46.23 L 161.22 34.14 L 164.41 34.14 L 164.41 22.04 L 452.76 22.04 L 452.76 22.04" clip-path="url(#pe987f3780f)" style="fill: none; stroke: #56b4e9; stroke-width: 1.8; stroke-linecap: square"/></g><g id="line2d_37"><path d="M 37.32 263.94 L 82.73 263.94 L 82.73 251.84 L 82.75 251.84 L 85.59 251.84 L 85.59 239.75 L 87.44 239.75 L 87.44 215.56 L 88.35 215.56 L 88.35 179.28 L 89.25 179.28 L 89.25 167.18 L 91.87 167.18 L 91.87 155.09 L 96.06 155.09 L 96.06 142.99 L 127.18 142.99 L 127.18 130.9 L 131.17 130.9 L 131.17 118.8 L 133.09 118.8 L 133.09 106.71 L 134.04 106.71 L 134.04 94.61 L 138.58 94.61 L 138.58 82.52 L 140.32 82.52 L 140.32 70.42 L 142.02 70.42 L 142.02 58.33 L 142.86 58.33 L 142.86 46.23 L 143.69 46.23 L 143.69 34.14 L 145.32 34.14 L 145.32 22.04 L 452.76 22.04 L 452.76 22.04" clip-path="url(#pe987f3780f)" style="fill: none; stroke: #000000; stroke-width: 1.8; stroke-linecap: square"/></g><g id="line2d_38"><path d="M 37.32 263.94 L 71.18 263.94 L 71.18 239.75 L 73.41 239.75 L 73.41 227.65 L 74.51 227.65 L 74.51 191.37 L 75.59 191.37 L 75.59 179.28 L 76.65 179.28 L 76.65 155.09 L 79.75 155.09 L 79.75 142.99 L 118.48 142.99 L 118.48 130.9 L 120.75 130.9 L 120.75 118.8 L 126.14 118.8 L 126.14 106.71 L 130.19 106.71 L 130.19 82.52 L 131.17 82.52 L 131.17 70.42 L 133.09 70.42 L 133.09 58.33 L 134.04 58.33 L 134.04 46.23 L 135.89 46.23 L 135.89 34.14 L 139.45 34.14 L 139.45 22.04 L 452.76 22.04 L 452.76 22.04" clip-path="url(#pe987f3780f)" style="fill: none; stroke-dasharray: 6.66,2.88; stroke-dashoffset: 0; stroke: #0072b2; stroke-width: 1.8"/></g><g id="line2d_39"><path d="M 37.32 263.94 L 219.52 263.94 L 219.52 251.84 L 219.67 251.84 L 219.67 239.75 L 220.14 239.75 L 220.14 227.65 L 220.3 227.65 L 220.3 215.56 L 221.22 215.56 L 221.22 203.46 L 221.83 203.46 L 221.83 191.37 L 223.34 191.37 L 223.34 179.28 L 223.93 179.28 L 223.93 167.18 L 224.66 167.18 L 224.66 155.09 L 225.39 155.09 L 225.39 142.99 L 452.76 142.99 L 452.76 142.99" clip-path="url(#pe987f3780f)" style="fill: none; stroke-dasharray: 6.66,2.88; stroke-dashoffset: 0; stroke: #d55e00; stroke-width: 1.8"/></g><g id="line2d_40"><path d="M 37.32 263.94 L 247.99 263.94 L 247.99 251.84 L 255.62 251.84 L 255.62 239.75 L 263.69 239.75 L 263.69 227.65 L 265.24 227.65 L 265.33 203.46 L 267.26 203.46 L 267.26 191.37 L 269.54 191.37 L 269.54 179.28 L 269.94 179.28 L 269.94 167.18 L 270.98 167.18 L 270.98 155.09 L 271.03 155.09 L 271.21 155.09 L 271.21 142.99 L 452.76 142.99 L 452.76 142.99" clip-path="url(#pe987f3780f)" style="fill: none; stroke-dasharray: 6.66,2.88; stroke-dashoffset: 0; stroke: #009e73; stroke-width: 1.8"/></g><g id="patch_3"><path d="M 37.32 268.78 L 37.32 17.21" style="fill: none; stroke: #000000; stroke-width: 0.8; stroke-linejoin: miter; stroke-linecap: square"/></g><g id="patch_4"><path d="M 37.32 268.78 L 452.76 268.78" style="fill: none; stroke: #000000; stroke-width: 0.8; stroke-linejoin: miter; stroke-linecap: square"/></g><g id="text_18"><g transform="translate(89.921617 11.206553) scale(0.108 -0.108)"><defs><path id="DejaVuSans-27" d="M 1259 4147 L 1259 519 L 2022 519 Q 2988 519 3436 956 Q 3884 1394 3884 2338 Q 3884 3275 3436 3711 Q 2988 4147 2022 4147 L 1259 4147 z M 628 4666 L 1925 4666 Q 3281 4666 3915 4102 Q 4550 3538 4550 2338 Q 4550 1131 3912 565 Q 3275 0 1925 0 L 628 0 L 628 4666 z" transform="scale(0.015625)"/><path id="DejaVuSans-13af" d="M 3431 3500 L 3431 0 L 2853 0 L 2853 3053 L 1275 3053 L 1275 0 L 697 0 L 697 3053 L 147 3053 L 147 3500 L 697 3500 L 697 3744 Q 697 4316 967 4589 Q 1238 4863 1797 4863 L 2375 4863 L 2375 4384 L 1825 4384 Q 1516 4384 1395 4259 Q 1275 4134 1275 3809 L 1275 3500 L 3431 3500 z M 2853 4856 L 3431 4856 L 3431 4128 L 2853 4128 L 2853 4856 z" transform="scale(0.015625)"/><path id="DejaVuSans-5d" d="M 353 3500 L 3084 3500 L 3084 2975 L 922 459 L 3084 459 L 3084 0 L 275 0 L 275 525 L 2438 3041 L 353 3041 L 353 3500 z" transform="scale(0.015625)"/><path id="DejaVuSans-5c" d="M 2059 -325 Q 1816 -950 1584 -1140 Q 1353 -1331 966 -1331 L 506 -1331 L 506 -850 L 844 -850 Q 1081 -850 1212 -737 Q 1344 -625 1503 -206 L 1606 56 L 191 3500 L 800 3500 L 1894 763 L 2988 3500 L 3597 3500 L 2059 -325 z" transform="scale(0.015625)"/><path id="DejaVuSans-1d" d="M 750 794 L 1409 794 L 1409 0 L 750 0 L 750 794 z M 750 3309 L 1409 3309 L 1409 2516 L 750 2516 L 750 3309 z" transform="scale(0.015625)"/><path id="DejaVuSans-34e" d="M 597 3500 L 1191 3500 L 1191 2047 L 2700 3500 L 3400 3500 L 2022 2181 L 3616 0 L 2913 0 L 1619 1806 L 1191 1403 L 1191 0 L 597 0 L 597 3500 z" transform="scale(0.015625)"/><path id="DejaVuSans-20" d="M 678 2906 L 4684 2906 L 4684 2381 L 678 2381 L 678 2906 z M 678 1631 L 4684 1631 L 4684 1100 L 678 1100 L 678 1631 z" transform="scale(0.015625)"/><path id="DejaVuSans-59" d="M 191 3500 L 800 3500 L 1894 563 L 2988 3500 L 3597 3500 L 2284 0 L 1503 0 L 191 3500 z" transform="scale(0.015625)"/></defs><use xlink:href="#DejaVuSans-27"/><use xlink:href="#DejaVuSans-44" transform="translate(77 0)"/><use xlink:href="#DejaVuSans-57" transform="translate(138.28125 0)"/><use xlink:href="#DejaVuSans-44" transform="translate(177.484375 0)"/><use xlink:href="#DejaVuSans-3" transform="translate(238.765625 0)"/><use xlink:href="#DejaVuSans-53" transform="translate(270.546875 0)"/><use xlink:href="#DejaVuSans-55" transform="translate(334.03125 0)"/><use xlink:href="#DejaVuSans-52" transform="translate(372.9375 0)"/><use xlink:href="#DejaVuSans-13af" transform="translate(434.125 0)"/><use xlink:href="#DejaVuSans-4f" transform="translate(497.109375 0)"/><use xlink:href="#DejaVuSans-48" transform="translate(524.890625 0)"/><use xlink:href="#DejaVuSans-3" transform="translate(586.421875 0)"/><use xlink:href="#DejaVuSans-b" transform="translate(618.203125 0)"/><use xlink:href="#DejaVuSans-50" transform="translate(657.21875 0)"/><use xlink:href="#DejaVuSans-4c" transform="translate(754.625 0)"/><use xlink:href="#DejaVuSans-51" transform="translate(782.40625 0)"/><use xlink:href="#DejaVuSans-4c" transform="translate(845.78125 0)"/><use xlink:href="#DejaVuSans-50" transform="translate(873.5625 0)"/><use xlink:href="#DejaVuSans-4c" transform="translate(970.96875 0)"/><use xlink:href="#DejaVuSans-5d" transform="translate(998.75 0)"/><use xlink:href="#DejaVuSans-48" transform="translate(1051.234375 0)"/><use xlink:href="#DejaVuSans-55" transform="translate(1112.765625 0)"/><use xlink:href="#DejaVuSans-3" transform="translate(1153.875 0)"/><use xlink:href="#DejaVuSans-52" transform="translate(1185.65625 0)"/><use xlink:href="#DejaVuSans-51" transform="translate(1246.84375 0)"/><use xlink:href="#DejaVuSans-4f" transform="translate(1310.21875 0)"/><use xlink:href="#DejaVuSans-5c" transform="translate(1338 0)"/><use xlink:href="#DejaVuSans-c" transform="translate(1397.1875 0)"/><use xlink:href="#DejaVuSans-1d" transform="translate(1436.203125 0)"/><use xlink:href="#DejaVuSans-3" transform="translate(1469.890625 0)"/><use xlink:href="#DejaVuSans-34e" transform="translate(1501.671875 0)"/><use xlink:href="#DejaVuSans-3" transform="translate(1560.609375 0)"/><use xlink:href="#DejaVuSans-20" transform="translate(1592.390625 0)"/><use xlink:href="#DejaVuSans-3" transform="translate(1676.1875 0)"/><use xlink:href="#DejaVuSans-4a" transform="translate(1707.96875 0)"/><use xlink:href="#DejaVuSans-55" transform="translate(1771.453125 0)"/><use xlink:href="#DejaVuSans-44" transform="translate(1812.5625 0)"/><use xlink:href="#DejaVuSans-47" transform="translate(1873.84375 0)"/><use xlink:href="#DejaVuSans-4c" transform="translate(1937.328125 0)"/><use xlink:href="#DejaVuSans-48" transform="translate(1965.109375 0)"/><use xlink:href="#DejaVuSans-51" transform="translate(2026.640625 0)"/><use xlink:href="#DejaVuSans-57" transform="translate(2090.015625 0)"/><use xlink:href="#DejaVuSans-3" transform="translate(2129.21875 0)"/><use xlink:href="#DejaVuSans-48" transform="translate(2161 0)"/><use xlink:href="#DejaVuSans-59" transform="translate(2222.53125 0)"/><use xlink:href="#DejaVuSans-44" transform="translate(2281.71875 0)"/><use xlink:href="#DejaVuSans-4f" transform="translate(2343 0)"/><use xlink:href="#DejaVuSans-56" transform="translate(2370.78125 0)"/><use xlink:href="#DejaVuSans-3" transform="translate(2422.875 0)"/><use xlink:href="#DejaVuSans-12" transform="translate(2454.65625 0)"/><use xlink:href="#DejaVuSans-3" transform="translate(2488.34375 0)"/><use xlink:href="#DejaVuSans-b" transform="translate(2520.125 0)"/><use xlink:href="#DejaVuSans-51" transform="translate(2559.140625 0)"/><use xlink:href="#DejaVuSans-3" transform="translate(2622.515625 0)"/><use xlink:href="#DejaVuSans-e" transform="translate(2654.296875 0)"/><use xlink:href="#DejaVuSans-3" transform="translate(2738.09375 0)"/><use xlink:href="#DejaVuSans-14" transform="translate(2769.875 0)"/><use xlink:href="#DejaVuSans-c" transform="translate(2833.5 0)"/></g></g><g id="legend_1"><g id="line2d_41"><path d="M 369.16 133.86 L 378.16 133.86 L 378.16 133.86 L 387.16 133.86 L 387.16 133.86" style="fill: none; stroke: #0072b2; stroke-width: 1.8; stroke-linecap: square"/></g><g id="text_19"><g transform="translate(394.362416 137.007104) scale(0.09 -0.09)"><defs><path id="DejaVuSans-24" d="M 2188 4044 L 1331 1722 L 3047 1722 L 2188 4044 z M 1831 4666 L 2547 4666 L 4325 0 L 3669 0 L 3244 1197 L 1141 1197 L 716 0 L 50 0 L 1831 4666 z" transform="scale(0.015625)"/><path id="DejaVuSans-10" d="M 313 2009 L 1997 2009 L 1997 1497 L 313 1497 L 313 2009 z" transform="scale(0.015625)"/><path id="DejaVuSans-2a" d="M 3809 666 L 3809 1919 L 2778 1919 L 2778 2438 L 4434 2438 L 4434 434 Q 4069 175 3628 42 Q 3188 -91 2688 -91 Q 1594 -91 976 548 Q 359 1188 359 2328 Q 359 3472 976 4111 Q 1594 4750 2688 4750 Q 3144 4750 3555 4637 Q 3966 4525 4313 4306 L 4313 3634 Q 3963 3931 3569 4081 Q 3175 4231 2741 4231 Q 1884 4231 1454 3753 Q 1025 3275 1025 2328 Q 1025 1384 1454 906 Q 1884 428 2741 428 Q 3075 428 3337 486 Q 3600 544 3809 666 z" transform="scale(0.015625)"/></defs><use xlink:href="#DejaVuSans-24"/><use xlink:href="#DejaVuSans-24" transform="translate(71.1875 0)"/><use xlink:href="#DejaVuSans-b" transform="translate(139.59375 0)"/><use xlink:href="#DejaVuSans-14" transform="translate(178.609375 0)"/><use xlink:href="#DejaVuSans-c" transform="translate(242.234375 0)"/><use xlink:href="#DejaVuSans-10" transform="translate(281.25 0)"/><use xlink:href="#DejaVuSans-2a" transform="translate(320.984375 0)"/><use xlink:href="#DejaVuSans-27" transform="translate(398.46875 0)"/></g></g><g id="line2d_42"><path d="M 369.16 147.36 L 378.16 147.36 L 378.16 147.36 L 387.16 147.36 L 387.16 147.36" style="fill: none; stroke: #d55e00; stroke-width: 1.8; stroke-linecap: square"/></g><g id="text_20"><g transform="translate(394.362416 150.507807) scale(0.09 -0.09)"><use xlink:href="#DejaVuSans-24"/><use xlink:href="#DejaVuSans-24" transform="translate(71.1875 0)"/><use xlink:href="#DejaVuSans-b" transform="translate(139.59375 0)"/><use xlink:href="#DejaVuSans-16" transform="translate(178.609375 0)"/><use xlink:href="#DejaVuSans-c" transform="translate(242.234375 0)"/><use xlink:href="#DejaVuSans-10" transform="translate(281.25 0)"/><use xlink:href="#DejaVuSans-2a" transform="translate(320.984375 0)"/><use xlink:href="#DejaVuSans-27" transform="translate(398.46875 0)"/></g></g><g id="line2d_43"><path d="M 369.16 160.86 L 378.16 160.86 L 378.16 160.86 L 387.16 160.86 L 387.16 160.86" style="fill: none; stroke: #009e73; stroke-width: 1.8; stroke-linecap: square"/></g><g id="text_21"><g transform="translate(394.362416 164.00851) scale(0.09 -0.09)"><use xlink:href="#DejaVuSans-24"/><use xlink:href="#DejaVuSans-24" transform="translate(71.1875 0)"/><use xlink:href="#DejaVuSans-b" transform="translate(139.59375 0)"/><use xlink:href="#DejaVuSans-18" transform="translate(178.609375 0)"/><use xlink:href="#DejaVuSans-c" transform="translate(242.234375 0)"/><use xlink:href="#DejaVuSans-10" transform="translate(281.25 0)"/><use xlink:href="#DejaVuSans-2a" transform="translate(320.984375 0)"/><use xlink:href="#DejaVuSans-27" transform="translate(398.46875 0)"/></g></g><g id="line2d_44"><path d="M 369.16 174.36 L 378.16 174.36 L 378.16 174.36 L 387.16 174.36 L 387.16 174.36" style="fill: none; stroke: #cc79a7; stroke-width: 1.8; stroke-linecap: square"/></g><g id="text_22"><g transform="translate(394.362416 177.509213) scale(0.09 -0.09)"><use xlink:href="#DejaVuSans-24"/><use xlink:href="#DejaVuSans-24" transform="translate(71.1875 0)"/><use xlink:href="#DejaVuSans-b" transform="translate(139.59375 0)"/><use xlink:href="#DejaVuSans-14" transform="translate(178.609375 0)"/><use xlink:href="#DejaVuSans-13" transform="translate(242.234375 0)"/><use xlink:href="#DejaVuSans-c" transform="translate(305.859375 0)"/><use xlink:href="#DejaVuSans-10" transform="translate(344.875 0)"/><use xlink:href="#DejaVuSans-2a" transform="translate(384.609375 0)"/><use xlink:href="#DejaVuSans-27" transform="translate(462.09375 0)"/></g></g><g id="line2d_45"><path d="M 369.16 187.86 L 378.16 187.86 L 378.16 187.86 L 387.16 187.86 L 387.16 187.86" style="fill: none; stroke: #e69f00; stroke-width: 1.8; stroke-linecap: square"/></g><g id="text_23"><g transform="translate(394.362416 191.009916) scale(0.09 -0.09)"><defs><path id="DejaVuSans-2f" d="M 628 4666 L 1259 4666 L 1259 531 L 3531 531 L 3531 0 L 628 0 L 628 4666 z" transform="scale(0.015625)"/><path id="DejaVuSans-25" d="M 1259 2228 L 1259 519 L 2272 519 Q 2781 519 3026 730 Q 3272 941 3272 1375 Q 3272 1813 3026 2020 Q 2781 2228 2272 2228 L 1259 2228 z M 1259 4147 L 1259 2741 L 2194 2741 Q 2656 2741 2882 2914 Q 3109 3088 3109 3444 Q 3109 3797 2882 3972 Q 2656 4147 2194 4147 L 1259 4147 z M 628 4666 L 2241 4666 Q 2963 4666 3353 4366 Q 3744 4066 3744 3513 Q 3744 3084 3544 2831 Q 3344 2578 2956 2516 Q 3422 2416 3680 2098 Q 3938 1781 3938 1306 Q 3938 681 3513 340 Q 3088 0 2303 0 L 628 0 L 628 4666 z" transform="scale(0.015625)"/><path id="DejaVuSans-29" d="M 628 4666 L 3309 4666 L 3309 4134 L 1259 4134 L 1259 2759 L 3109 2759 L 3109 2228 L 1259 2228 L 1259 0 L 628 0 L 628 4666 z" transform="scale(0.015625)"/><path id="DejaVuSans-36" d="M 3425 4513 L 3425 3897 Q 3066 4069 2747 4153 Q 2428 4238 2131 4238 Q 1616 4238 1336 4038 Q 1056 3838 1056 3469 Q 1056 3159 1242 3001 Q 1428 2844 1947 2747 L 2328 2669 Q 3034 2534 3370 2195 Q 3706 1856 3706 1288 Q 3706 609 3251 259 Q 2797 -91 1919 -91 Q 1588 -91 1214 -16 Q 841 59 441 206 L 441 856 Q 825 641 1194 531 Q 1563 422 1919 422 Q 2459 422 2753 634 Q 3047 847 3047 1241 Q 3047 1584 2836 1778 Q 2625 1972 2144 2069 L 1759 2144 Q 1053 2284 737 2584 Q 422 2884 422 3419 Q 422 4038 858 4394 Q 1294 4750 2059 4750 Q 2388 4750 2728 4690 Q 3069 4631 3425 4513 z" transform="scale(0.015625)"/></defs><use xlink:href="#DejaVuSans-2f"/><use xlink:href="#DejaVuSans-10" transform="translate(53.96875 0)"/><use xlink:href="#DejaVuSans-25" transform="translate(86.484375 0)"/><use xlink:href="#DejaVuSans-29" transform="translate(155.09375 0)"/><use xlink:href="#DejaVuSans-2a" transform="translate(212.609375 0)"/><use xlink:href="#DejaVuSans-36" transform="translate(290.09375 0)"/><use xlink:href="#DejaVuSans-b" transform="translate(353.578125 0)"/><use xlink:href="#DejaVuSans-14" transform="translate(392.59375 0)"/><use xlink:href="#DejaVuSans-c" transform="translate(456.21875 0)"/></g></g><g id="line2d_46"><path d="M 369.16 201.36 L 378.16 201.36 L 378.16 201.36 L 387.16 201.36 L 387.16 201.36" style="fill: none; stroke: #56b4e9; stroke-width: 1.8; stroke-linecap: square"/></g><g id="text_24"><g transform="translate(394.362416 204.510619) scale(0.09 -0.09)"><use xlink:href="#DejaVuSans-2f"/><use xlink:href="#DejaVuSans-10" transform="translate(53.96875 0)"/><use xlink:href="#DejaVuSans-25" transform="translate(86.484375 0)"/><use xlink:href="#DejaVuSans-29" transform="translate(155.09375 0)"/><use xlink:href="#DejaVuSans-2a" transform="translate(212.609375 0)"/><use xlink:href="#DejaVuSans-36" transform="translate(290.09375 0)"/><use xlink:href="#DejaVuSans-b" transform="translate(353.578125 0)"/><use xlink:href="#DejaVuSans-16" transform="translate(392.59375 0)"/><use xlink:href="#DejaVuSans-c" transform="translate(456.21875 0)"/></g></g><g id="line2d_47"><path d="M 369.16 214.86 L 378.16 214.86 L 378.16 214.86 L 387.16 214.86 L 387.16 214.86" style="fill: none; stroke: #000000; stroke-width: 1.8; stroke-linecap: square"/></g><g id="text_25"><g transform="translate(394.362416 218.011323) scale(0.09 -0.09)"><use xlink:href="#DejaVuSans-2f"/><use xlink:href="#DejaVuSans-10" transform="translate(53.96875 0)"/><use xlink:href="#DejaVuSans-25" transform="translate(86.484375 0)"/><use xlink:href="#DejaVuSans-29" transform="translate(155.09375 0)"/><use xlink:href="#DejaVuSans-2a" transform="translate(212.609375 0)"/><use xlink:href="#DejaVuSans-36" transform="translate(290.09375 0)"/><use xlink:href="#DejaVuSans-b" transform="translate(353.578125 0)"/><use xlink:href="#DejaVuSans-18" transform="translate(392.59375 0)"/><use xlink:href="#DejaVuSans-c" transform="translate(456.21875 0)"/></g></g><g id="line2d_48"><path d="M 369.16 228.36 L 378.16 228.36 L 378.16 228.36 L 387.16 228.36 L 387.16 228.36" style="fill: none; stroke-dasharray: 6.66,2.88; stroke-dashoffset: 0; stroke: #0072b2; stroke-width: 1.8"/></g><g id="text_26"><g transform="translate(394.362416 231.512026) scale(0.09 -0.09)"><use xlink:href="#DejaVuSans-2f"/><use xlink:href="#DejaVuSans-10" transform="translate(53.96875 0)"/><use xlink:href="#DejaVuSans-25" transform="translate(86.484375 0)"/><use xlink:href="#DejaVuSans-29" transform="translate(155.09375 0)"/><use xlink:href="#DejaVuSans-2a" transform="translate(212.609375 0)"/><use xlink:href="#DejaVuSans-36" transform="translate(290.09375 0)"/><use xlink:href="#DejaVuSans-b" transform="translate(353.578125 0)"/><use xlink:href="#DejaVuSans-14" transform="translate(392.59375 0)"/><use xlink:href="#DejaVuSans-13" transform="translate(456.21875 0)"/><use xlink:href="#DejaVuSans-c" transform="translate(519.84375 0)"/></g></g><g id="line2d_49"><path d="M 369.16 241.86 L 378.16 241.86 L 378.16 241.86 L 387.16 241.86 L 387.16 241.86" style="fill: none; stroke-dasharray: 6.66,2.88; stroke-dashoffset: 0; stroke: #d55e00; stroke-width: 1.8"/></g><g id="text_27"><g transform="translate(394.362416 245.012729) scale(0.09 -0.09)"><defs><path id="DejaVuSans-31" d="M 628 4666 L 1478 4666 L 3547 763 L 3547 4666 L 4159 4666 L 4159 0 L 3309 0 L 1241 3903 L 1241 0 L 628 0 L 628 4666 z" transform="scale(0.015625)"/></defs><use xlink:href="#DejaVuSans-31"/><use xlink:href="#DejaVuSans-48" transform="translate(74.8125 0)"/><use xlink:href="#DejaVuSans-56" transform="translate(136.34375 0)"/><use xlink:href="#DejaVuSans-57" transform="translate(188.4375 0)"/><use xlink:href="#DejaVuSans-48" transform="translate(227.640625 0)"/><use xlink:href="#DejaVuSans-55" transform="translate(289.171875 0)"/><use xlink:href="#DejaVuSans-52" transform="translate(328.078125 0)"/><use xlink:href="#DejaVuSans-59" transform="translate(389.265625 0)"/></g></g><g id="line2d_50"><path d="M 369.16 255.36 L 378.16 255.36 L 378.16 255.36 L 387.16 255.36 L 387.16 255.36" style="fill: none; stroke-dasharray: 6.66,2.88; stroke-dashoffset: 0; stroke: #009e73; stroke-width: 1.8"/></g><g id="text_28"><g transform="translate(394.362416 258.513432) scale(0.09 -0.09)"><defs><path id="DejaVuSans-345" d="M 2644 1628 L 2506 2350 Q 2366 3091 1809 3091 Q 1391 3091 1200 2747 Q 959 2316 959 1747 Q 959 1059 1194 731 Q 1431 397 1809 397 Q 2228 397 2453 1063 L 2644 1628 z M 2966 2584 L 3275 3500 L 3788 3500 L 3147 1603 L 3272 919 Q 3300 766 3409 638 Q 3538 488 3638 488 L 3913 488 L 3913 0 L 3569 0 Q 3275 0 3013 263 Q 2884 394 2831 669 Q 2688 322 2394 50 Q 2256 -78 1809 -78 Q 1075 -78 719 397 Q 353 888 353 1747 Q 353 2666 750 3097 Q 1191 3578 1809 3578 Q 2781 3578 2966 2584 z" transform="scale(0.015625)"/></defs><use xlink:href="#DejaVuSans-2a"/><use xlink:href="#DejaVuSans-27" transform="translate(77.484375 0)"/><use xlink:href="#DejaVuSans-3" transform="translate(154.484375 0)"/><use xlink:href="#DejaVuSans-13af" transform="translate(186.265625 0)"/><use xlink:href="#DejaVuSans-5b" transform="translate(249.25 0)"/><use xlink:href="#DejaVuSans-48" transform="translate(305.359375 0)"/><use xlink:href="#DejaVuSans-47" transform="translate(366.890625 0)"/><use xlink:href="#DejaVuSans-3" transform="translate(430.375 0)"/><use xlink:href="#DejaVuSans-345" transform="translate(462.15625 0)"/></g></g></g></g></g><defs><clipPath id="pe987f3780f"><rect x="37.32" y="17.21" width="415.444598" height="251.568989"/></clipPath></defs></svg>
